<svg width="35" height="35" viewBox="0 0 35 35" fill="none" xmlns="http://www.w3.org/2000/svg">
<path d="M31.1719 4.92188H27.8906V6.5625C27.8906 6.99762 27.7178 7.41492 27.4101 7.7226C27.1024 8.03027 26.6851 8.20312 26.25 8.20312C25.8149 8.20312 25.3976 8.03027 25.0899 7.7226C24.7822 7.41492 24.6094 6.99762 24.6094 6.5625V4.92188H19.1406V6.5625C19.1406 6.99762 18.9678 7.41492 18.6601 7.7226C18.3524 8.03027 17.9351 8.20312 17.5 8.20312C17.0649 8.20312 16.6476 8.03027 16.3399 7.7226C16.0322 7.41492 15.8594 6.99762 15.8594 6.5625V4.92188H10.3906V6.5625C10.3906 6.99762 10.2178 7.41492 9.9101 7.7226C9.60242 8.03027 9.18512 8.20312 8.75 8.20312C8.31488 8.20312 7.89758 8.03027 7.5899 7.7226C7.28223 7.41492 7.10938 6.99762 7.10938 6.5625V4.92188H3.82812C3.24796 4.92188 2.69156 5.15234 2.28133 5.56258C1.87109 5.97281 1.64063 6.52921 1.64062 7.10938V11.4844H33.3594V7.10938C33.3594 6.52921 33.1289 5.97281 32.7187 5.56258C32.3084 5.15234 31.752 4.92188 31.1719 4.92188Z" fill="#9BC9FF"/>
<path d="M15.3125 15.3125H13.125C12.823 15.3125 12.5781 15.5573 12.5781 15.8594V17.5C12.5781 17.802 12.823 18.0469 13.125 18.0469H15.3125C15.6145 18.0469 15.8594 17.802 15.8594 17.5V15.8594C15.8594 15.5573 15.6145 15.3125 15.3125 15.3125Z" fill="#9BC9FF"/>
<path d="M8.75 15.3125H6.5625C6.26047 15.3125 6.01562 15.5573 6.01562 15.8594V17.5C6.01562 17.802 6.26047 18.0469 6.5625 18.0469H8.75C9.05203 18.0469 9.29688 17.802 9.29688 17.5V15.8594C9.29688 15.5573 9.05203 15.3125 8.75 15.3125Z" fill="#9BC9FF"/>
<path d="M28.4375 15.3125H26.25C25.948 15.3125 25.7031 15.5573 25.7031 15.8594V17.5C25.7031 17.802 25.948 18.0469 26.25 18.0469H28.4375C28.7395 18.0469 28.9844 17.802 28.9844 17.5V15.8594C28.9844 15.5573 28.7395 15.3125 28.4375 15.3125Z" fill="#9BC9FF"/>
<path d="M15.3125 20.2344H13.125C12.823 20.2344 12.5781 20.4792 12.5781 20.7812V22.4219C12.5781 22.7239 12.823 22.9688 13.125 22.9688H15.3125C15.6145 22.9688 15.8594 22.7239 15.8594 22.4219V20.7812C15.8594 20.4792 15.6145 20.2344 15.3125 20.2344Z" fill="#9BC9FF"/>
<path d="M8.75 20.2344H6.5625C6.26047 20.2344 6.01562 20.4792 6.01562 20.7812V22.4219C6.01562 22.7239 6.26047 22.9688 6.5625 22.9688H8.75C9.05203 22.9688 9.29688 22.7239 9.29688 22.4219V20.7812C9.29688 20.4792 9.05203 20.2344 8.75 20.2344Z" fill="#9BC9FF"/>
<path d="M15.3125 25.1562H13.125C12.823 25.1562 12.5781 25.4011 12.5781 25.7031V27.3438C12.5781 27.6458 12.823 27.8906 13.125 27.8906H15.3125C15.6145 27.8906 15.8594 27.6458 15.8594 27.3438V25.7031C15.8594 25.4011 15.6145 25.1562 15.3125 25.1562Z" fill="#9BC9FF"/>
<path d="M21.875 15.3125H19.6875C19.3855 15.3125 19.1406 15.5573 19.1406 15.8594V17.5C19.1406 17.802 19.3855 18.0469 19.6875 18.0469H21.875C22.177 18.0469 22.4219 17.802 22.4219 17.5V15.8594C22.4219 15.5573 22.177 15.3125 21.875 15.3125Z" fill="#9BC9FF"/>
<path d="M21.875 20.2344H19.6875C19.3855 20.2344 19.1406 20.4792 19.1406 20.7812V22.4219C19.1406 22.7239 19.3855 22.9688 19.6875 22.9688H21.875C22.177 22.9688 22.4219 22.7239 22.4219 22.4219V20.7812C22.4219 20.4792 22.177 20.2344 21.875 20.2344Z" fill="#9BC9FF"/>
<path d="M8.75 25.1562H6.5625C6.26047 25.1562 6.01562 25.4011 6.01562 25.7031V27.3438C6.01562 27.6458 6.26047 27.8906 6.5625 27.8906H8.75C9.05203 27.8906 9.29688 27.6458 9.29688 27.3438V25.7031C9.29688 25.4011 9.05203 25.1562 8.75 25.1562Z" fill="#9BC9FF"/>
<path d="M26.7969 33.3594C30.4212 33.3594 33.3594 30.4212 33.3594 26.7969C33.3594 23.1725 30.4212 20.2344 26.7969 20.2344C23.1725 20.2344 20.2344 23.1725 20.2344 26.7969C20.2344 30.4212 23.1725 33.3594 26.7969 33.3594Z" fill="#9BC9FF"/>
<path d="M31.1719 4.375H28.4375V3.28125C28.4375 2.70109 28.207 2.14469 27.7968 1.73445C27.3866 1.32422 26.8302 1.09375 26.25 1.09375C25.6698 1.09375 25.1134 1.32422 24.7032 1.73445C24.293 2.14469 24.0625 2.70109 24.0625 3.28125V4.375H19.6875V3.28125C19.6875 2.70109 19.457 2.14469 19.0468 1.73445C18.6366 1.32422 18.0802 1.09375 17.5 1.09375C16.9198 1.09375 16.3634 1.32422 15.9532 1.73445C15.543 2.14469 15.3125 2.70109 15.3125 3.28125V4.375H10.9375V3.28125C10.9375 2.70109 10.707 2.14469 10.2968 1.73445C9.88656 1.32422 9.33016 1.09375 8.75 1.09375C8.16984 1.09375 7.61344 1.32422 7.2032 1.73445C6.79297 2.14469 6.5625 2.70109 6.5625 3.28125V4.375H3.82812C3.10292 4.375 2.40742 4.66308 1.89463 5.17588C1.38184 5.68867 1.09375 6.38417 1.09375 7.10938V28.9844C1.09375 29.7096 1.38184 30.4051 1.89463 30.9179C2.40742 31.4307 3.10292 31.7188 3.82812 31.7188H19.1406C19.2857 31.7188 19.4248 31.6611 19.5273 31.5586C19.6299 31.456 19.6875 31.3169 19.6875 31.1719C19.6875 31.0268 19.6299 30.8877 19.5273 30.7852C19.4248 30.6826 19.2857 30.625 19.1406 30.625H3.82812C3.3934 30.6237 2.97686 30.4504 2.66946 30.143C2.36207 29.8356 2.1888 29.4191 2.1875 28.9844V12.0312H32.8125V21.3281C32.8125 21.4732 32.8701 21.6123 32.9727 21.7148C33.0752 21.8174 33.2143 21.875 33.3594 21.875C33.5044 21.875 33.6435 21.8174 33.7461 21.7148C33.8486 21.6123 33.9062 21.4732 33.9062 21.3281V7.10938C33.9062 6.38417 33.6182 5.68867 33.1054 5.17588C32.5926 4.66308 31.8971 4.375 31.1719 4.375ZM25.1562 3.28125C25.1562 2.99117 25.2715 2.71297 25.4766 2.50785C25.6817 2.30273 25.9599 2.1875 26.25 2.1875C26.5401 2.1875 26.8183 2.30273 27.0234 2.50785C27.2285 2.71297 27.3438 2.99117 27.3438 3.28125V6.5625C27.3438 6.85258 27.2285 7.13078 27.0234 7.3359C26.8183 7.54102 26.5401 7.65625 26.25 7.65625C25.9599 7.65625 25.6817 7.54102 25.4766 7.3359C25.2715 7.13078 25.1562 6.85258 25.1562 6.5625V3.28125ZM16.4062 3.28125C16.4062 2.99117 16.5215 2.71297 16.7266 2.50785C16.9317 2.30273 17.2099 2.1875 17.5 2.1875C17.7901 2.1875 18.0683 2.30273 18.2734 2.50785C18.4785 2.71297 18.5938 2.99117 18.5938 3.28125V6.5625C18.5938 6.85258 18.4785 7.13078 18.2734 7.3359C18.0683 7.54102 17.7901 7.65625 17.5 7.65625C17.2099 7.65625 16.9317 7.54102 16.7266 7.3359C16.5215 7.13078 16.4062 6.85258 16.4062 6.5625V3.28125ZM7.65625 3.28125C7.65625 2.99117 7.77148 2.71297 7.9766 2.50785C8.18172 2.30273 8.45992 2.1875 8.75 2.1875C9.04008 2.1875 9.31828 2.30273 9.5234 2.50785C9.72852 2.71297 9.84375 2.99117 9.84375 3.28125V6.5625C9.84375 6.85258 9.72852 7.13078 9.5234 7.3359C9.31828 7.54102 9.04008 7.65625 8.75 7.65625C8.45992 7.65625 8.18172 7.54102 7.9766 7.3359C7.77148 7.13078 7.65625 6.85258 7.65625 6.5625V3.28125ZM32.8125 10.9375H2.1875V7.10938C2.1888 6.67465 2.36207 6.25811 2.66946 5.95071C2.97686 5.64332 3.3934 5.47005 3.82812 5.46875H6.5625V6.5625C6.5625 7.14266 6.79297 7.69906 7.2032 8.1093C7.61344 8.51953 8.16984 8.75 8.75 8.75C9.33016 8.75 9.88656 8.51953 10.2968 8.1093C10.707 7.69906 10.9375 7.14266 10.9375 6.5625V5.46875H15.3125V6.5625C15.3125 7.14266 15.543 7.69906 15.9532 8.1093C16.3634 8.51953 16.9198 8.75 17.5 8.75C18.0802 8.75 18.6366 8.51953 19.0468 8.1093C19.457 7.69906 19.6875 7.14266 19.6875 6.5625V5.46875H24.0625V6.5625C24.0625 7.14266 24.293 7.69906 24.7032 8.1093C25.1134 8.51953 25.6698 8.75 26.25 8.75C26.8302 8.75 27.3866 8.51953 27.7968 8.1093C28.207 7.69906 28.4375 7.14266 28.4375 6.5625V5.46875H31.1719C31.6066 5.47005 32.0231 5.64332 32.3305 5.95071C32.6379 6.25811 32.8112 6.67465 32.8125 7.10938V10.9375Z" fill="#1E81CE"/>
<path d="M16.4062 15.8594C16.4062 15.5693 16.291 15.2911 16.0859 15.086C15.8808 14.8809 15.6026 14.7656 15.3125 14.7656H13.125C12.8349 14.7656 12.5567 14.8809 12.3516 15.086C12.1465 15.2911 12.0312 15.5693 12.0312 15.8594V17.5C12.0312 17.7901 12.1465 18.0683 12.3516 18.2734C12.5567 18.4785 12.8349 18.5938 13.125 18.5938H15.3125C15.6026 18.5938 15.8808 18.4785 16.0859 18.2734C16.291 18.0683 16.4062 17.7901 16.4062 17.5V15.8594ZM13.125 17.5V15.8594H15.3125V17.5H13.125Z" fill="#1E81CE"/>
<path d="M9.84375 15.8594C9.84375 15.5693 9.72852 15.2911 9.5234 15.086C9.31828 14.8809 9.04008 14.7656 8.75 14.7656H6.5625C6.27242 14.7656 5.99422 14.8809 5.7891 15.086C5.58398 15.2911 5.46875 15.5693 5.46875 15.8594V17.5C5.46875 17.7901 5.58398 18.0683 5.7891 18.2734C5.99422 18.4785 6.27242 18.5938 6.5625 18.5938H8.75C9.04008 18.5938 9.31828 18.4785 9.5234 18.2734C9.72852 18.0683 9.84375 17.7901 9.84375 17.5V15.8594ZM6.5625 17.5V15.8594H8.75V17.5H6.5625Z" fill="#1E81CE"/>
<path d="M28.4375 18.5938C28.7276 18.5938 29.0058 18.4785 29.2109 18.2734C29.416 18.0683 29.5312 17.7901 29.5312 17.5V15.8594C29.5312 15.5693 29.416 15.2911 29.2109 15.086C29.0058 14.8809 28.7276 14.7656 28.4375 14.7656H26.25C25.9599 14.7656 25.6817 14.8809 25.4766 15.086C25.2715 15.2911 25.1562 15.5693 25.1562 15.8594V17.5C25.1562 17.7901 25.2715 18.0683 25.4766 18.2734C25.6817 18.4785 25.9599 18.5938 26.25 18.5938H28.4375ZM26.25 15.8594H28.4375V17.5H26.25V15.8594Z" fill="#1E81CE"/>
<path d="M16.4062 20.7812C16.4062 20.4912 16.291 20.213 16.0859 20.0079C15.8808 19.8027 15.6026 19.6875 15.3125 19.6875H13.125C12.8349 19.6875 12.5567 19.8027 12.3516 20.0079C12.1465 20.213 12.0312 20.4912 12.0312 20.7812V22.4219C12.0312 22.712 12.1465 22.9902 12.3516 23.1953C12.5567 23.4004 12.8349 23.5156 13.125 23.5156H15.3125C15.6026 23.5156 15.8808 23.4004 16.0859 23.1953C16.291 22.9902 16.4062 22.712 16.4062 22.4219V20.7812ZM13.125 22.4219V20.7812H15.3125V22.4219H13.125Z" fill="#1E81CE"/>
<path d="M9.84375 20.7812C9.84375 20.4912 9.72852 20.213 9.5234 20.0079C9.31828 19.8027 9.04008 19.6875 8.75 19.6875H6.5625C6.27242 19.6875 5.99422 19.8027 5.7891 20.0079C5.58398 20.213 5.46875 20.4912 5.46875 20.7812V22.4219C5.46875 22.712 5.58398 22.9902 5.7891 23.1953C5.99422 23.4004 6.27242 23.5156 6.5625 23.5156H8.75C9.04008 23.5156 9.31828 23.4004 9.5234 23.1953C9.72852 22.9902 9.84375 22.712 9.84375 22.4219V20.7812ZM6.5625 22.4219V20.7812H8.75V22.4219H6.5625Z" fill="#1E81CE"/>
<path d="M15.3125 24.6094H13.125C12.8349 24.6094 12.5567 24.7246 12.3516 24.9297C12.1465 25.1348 12.0312 25.413 12.0312 25.7031V27.3438C12.0312 27.6338 12.1465 27.912 12.3516 28.1171C12.5567 28.3223 12.8349 28.4375 13.125 28.4375H15.3125C15.6026 28.4375 15.8808 28.3223 16.0859 28.1171C16.291 27.912 16.4062 27.6338 16.4062 27.3438V25.7031C16.4062 25.413 16.291 25.1348 16.0859 24.9297C15.8808 24.7246 15.6026 24.6094 15.3125 24.6094ZM13.125 27.3438V25.7031H15.3125V27.3438H13.125Z" fill="#1E81CE"/>
<path d="M19.6875 18.5938H21.875C22.1651 18.5938 22.4433 18.4785 22.6484 18.2734C22.8535 18.0683 22.9688 17.7901 22.9688 17.5V15.8594C22.9688 15.5693 22.8535 15.2911 22.6484 15.086C22.4433 14.8809 22.1651 14.7656 21.875 14.7656H19.6875C19.3974 14.7656 19.1192 14.8809 18.9141 15.086C18.709 15.2911 18.5938 15.5693 18.5938 15.8594V17.5C18.5938 17.7901 18.709 18.0683 18.9141 18.2734C19.1192 18.4785 19.3974 18.5938 19.6875 18.5938ZM19.6875 15.8594H21.875V17.5H19.6875V15.8594Z" fill="#1E81CE"/>
<path d="M18.5938 22.4219C18.5938 22.712 18.709 22.9902 18.9141 23.1953C19.1192 23.4004 19.3974 23.5156 19.6875 23.5156C19.8325 23.5156 19.9716 23.458 20.0742 23.3554C20.1768 23.2529 20.2344 23.1138 20.2344 22.9688C20.2344 22.8237 20.1768 22.6846 20.0742 22.5821C19.9716 22.4795 19.8325 22.4219 19.6875 22.4219V20.7812H21.875C22.02 20.7812 22.1591 20.7236 22.2617 20.6211C22.3643 20.5185 22.4219 20.3794 22.4219 20.2344C22.4219 20.0893 22.3643 19.9502 22.2617 19.8477C22.1591 19.7451 22.02 19.6875 21.875 19.6875H19.6875C19.3974 19.6875 19.1192 19.8027 18.9141 20.0079C18.709 20.213 18.5938 20.4912 18.5938 20.7812V22.4219Z" fill="#1E81CE"/>
<path d="M8.75 24.6094H6.5625C6.27242 24.6094 5.99422 24.7246 5.7891 24.9297C5.58398 25.1348 5.46875 25.413 5.46875 25.7031V27.3438C5.46875 27.6338 5.58398 27.912 5.7891 28.1171C5.99422 28.3223 6.27242 28.4375 6.5625 28.4375H8.75C9.04008 28.4375 9.31828 28.3223 9.5234 28.1171C9.72852 27.912 9.84375 27.6338 9.84375 27.3438V25.7031C9.84375 25.413 9.72852 25.1348 9.5234 24.9297C9.31828 24.7246 9.04008 24.6094 8.75 24.6094ZM6.5625 27.3438V25.7031H8.75V27.3438H6.5625Z" fill="#1E81CE"/>
<path d="M26.7969 19.6875C25.3908 19.6875 24.0163 20.1045 22.8471 20.8856C21.678 21.6668 20.7668 22.7772 20.2287 24.0762C19.6906 25.3753 19.5498 26.8048 19.8241 28.1838C20.0984 29.5629 20.7755 30.8297 21.7698 31.824C22.7641 32.8182 24.0308 33.4953 25.4099 33.7696C26.789 34.044 28.2184 33.9032 29.5175 33.3651C30.8166 32.827 31.9269 31.9158 32.7081 30.7466C33.4893 29.5775 33.9063 28.203 33.9063 26.7969C33.9041 24.912 33.1544 23.105 31.8216 21.7722C30.4888 20.4394 28.6817 19.6897 26.7969 19.6875ZM26.7969 32.8125C25.6071 32.8125 24.444 32.4597 23.4548 31.7987C22.4655 31.1377 21.6945 30.1982 21.2392 29.099C20.7839 27.9997 20.6647 26.7902 20.8968 25.6233C21.129 24.4564 21.7019 23.3845 22.5432 22.5432C23.3845 21.7019 24.4564 21.129 25.6233 20.8968C26.7902 20.6647 27.9997 20.7839 29.099 21.2392C30.1982 21.6945 31.1377 22.4655 31.7987 23.4548C32.4597 24.444 32.8125 25.6071 32.8125 26.7969C32.8106 28.3917 32.1762 29.9207 31.0485 31.0485C29.9207 32.1762 28.3917 32.8106 26.7969 32.8125Z" fill="#1E81CE"/>
<path d="M29.9569 24.5043L25.7033 28.7579L23.7701 26.8242C23.6669 26.7246 23.5288 26.6694 23.3854 26.6707C23.242 26.6719 23.1048 26.7295 23.0034 26.8308C22.902 26.9322 22.8445 27.0694 22.8433 27.2128C22.842 27.3562 22.8972 27.4943 22.9968 27.5975L25.3166 29.9179C25.4192 30.0204 25.5582 30.078 25.7033 30.078C25.8483 30.078 25.9873 30.0204 26.0899 29.9179L30.7301 25.2776C30.8298 25.1745 30.8849 25.0363 30.8836 24.893C30.8824 24.7496 30.8249 24.6124 30.7235 24.511C30.6221 24.4096 30.4849 24.3521 30.3415 24.3509C30.1981 24.3496 30.06 24.4047 29.9569 24.5043Z" fill="#1E81CE"/>
</svg>
